<svg width="120" height="34" viewBox="0 0 120 34" fill="none" xmlns="http://www.w3.org/2000/svg">
<path d="M20.7319 27.7241C20.7032 28.2657 20.5737 28.7931 20.3435 29.3062C20.1133 29.8193 19.8112 30.2897 19.4371 30.7172C19.063 31.1163 18.617 31.4299 18.0991 31.6579C17.61 31.8575 17.0632 31.9572 16.459 31.9572C15.4807 31.9572 14.6031 31.6722 13.8262 31.1021C13.078 30.532 12.704 29.5343 12.704 28.109L12.6176 28.0662C12.3875 28.4368 12.0709 28.8501 11.6681 29.3062C11.294 29.7623 10.8337 30.1899 10.2869 30.589C9.76901 30.988 9.17914 31.3159 8.51734 31.5724C7.88431 31.8005 7.17934 31.9145 6.40244 31.9145C5.94205 31.9145 5.46728 31.8575 4.97812 31.7434C4.51773 31.6009 4.08612 31.3729 3.68329 31.0593C3.30922 30.7172 2.99271 30.2897 2.73374 29.7766C2.50355 29.2634 2.38845 28.6363 2.38845 27.8952C2.38845 27.097 2.70497 26.3274 3.338 25.5862C3.9998 24.8451 4.80548 24.1752 5.75502 23.5766C6.70457 22.9779 7.53902 22.4648 8.25837 22.0372C9.0065 21.6097 9.65391 21.2533 10.2006 20.9683C10.7473 20.6547 11.2221 20.3982 11.6249 20.1986C12.0566 19.9706 12.4162 19.771 12.704 19.6V15.1959C12.704 15.1389 12.6464 15.0106 12.5313 14.811C12.445 14.583 12.2724 14.3549 12.0134 14.1269C11.7832 13.8989 11.4523 13.6993 11.0207 13.5283C10.5891 13.3287 10.028 13.229 9.3374 13.229C8.87701 13.229 8.41663 13.3145 7.95624 13.4855C7.52463 13.628 7.13618 13.8276 6.79089 14.0841C6.4456 14.3122 6.17225 14.5545 5.97083 14.811C5.76941 15.0391 5.6687 15.2386 5.6687 15.4097V17.3338C5.6687 17.7329 5.45289 18.0892 5.02128 18.4028C4.61844 18.7163 4.17244 18.8731 3.68329 18.8731C3.2229 18.8731 2.82006 18.7163 2.47477 18.4028C2.15826 18.0607 2 17.6759 2 17.2483C2 16.9062 2.08632 16.5926 2.25897 16.3076C2.43161 16.0225 2.64742 15.766 2.90638 15.5379C3.16535 15.3099 3.43871 15.1103 3.72645 14.9393C4.04296 14.7683 4.31632 14.6115 4.54651 14.469C5.29464 14.0414 6.05715 13.628 6.83405 13.229C7.61095 12.8299 8.34469 12.4878 9.03527 12.2028C9.75462 11.9177 10.402 11.6897 10.9775 11.5186C11.5818 11.3476 12.0709 11.2621 12.445 11.2621C13.1931 11.2621 13.8981 11.4616 14.5599 11.8607C15.2217 12.2313 15.6965 12.7016 15.9842 13.2717C16.0993 13.4713 16.1712 13.8276 16.2 14.3407C16.2288 14.8253 16.2432 15.3099 16.2432 15.7945C16.2432 16.8207 16.2288 17.7471 16.2 18.5738C16.2 19.4005 16.2 20.1986 16.2 20.9683C16.2 21.7379 16.1856 22.5361 16.1569 23.3628C16.1569 24.1609 16.1569 25.0446 16.1569 26.0138C16.1569 27.2966 16.3727 28.1517 16.8043 28.5793C17.2647 28.9784 17.7826 29.1779 18.3581 29.1779C19.0199 29.1779 19.509 29.0497 19.8256 28.7931C20.1421 28.508 20.3579 28.1517 20.473 27.7241H20.7319ZM12.704 26.869V20.2841C12.186 20.6547 11.5386 21.0538 10.7617 21.4814C9.98481 21.8805 9.2223 22.3223 8.47417 22.8069C7.75482 23.2915 7.12179 23.8331 6.57508 24.4317C6.05715 25.0018 5.79818 25.6575 5.79818 26.3986C5.79818 27.1398 6.05715 27.8097 6.57508 28.4083C7.09302 29.0069 7.76921 29.3062 8.60366 29.3062C9.35178 29.3062 10.0136 29.2207 10.5891 29.0497C11.1646 28.8786 11.6969 28.5508 12.186 28.0662C12.5313 27.7526 12.704 27.3536 12.704 26.869Z" fill="white"/>
<path d="M36.6689 11.6897L35.3309 14.2979H28.7704V25.5434C28.7704 26.9972 29.0869 28.052 29.7199 28.7076C30.3529 29.3632 31.173 29.691 32.1801 29.691C33.0146 29.691 33.7051 29.5628 34.2518 29.3062C34.7985 29.0211 35.2733 28.5936 35.6762 28.0234L35.9351 28.1517C35.7625 28.5793 35.5179 29.0354 35.2014 29.52C34.9136 29.9761 34.5108 30.4037 33.9929 30.8028C33.5037 31.1733 32.9138 31.4726 32.2233 31.7007C31.5615 31.9002 30.7702 32 29.8494 32C29.2451 32 28.6553 31.9145 28.0798 31.7434C27.5331 31.5439 27.0439 31.2731 26.6123 30.931C26.1807 30.5605 25.821 30.1614 25.5333 29.7338C25.2743 29.2777 25.1448 28.8216 25.1448 28.3655C25.1448 25.686 25.1592 23.149 25.188 20.7545C25.2168 18.3315 25.2312 16.1793 25.2312 14.2979H22.0804V13.8276L28.3388 7.96966H28.684V11.6897H36.6689Z" fill="white"/>
<path d="M55.7124 25.4152C55.5973 26.0423 55.3383 26.7549 54.9355 27.5531C54.5326 28.3228 53.9859 29.0354 53.2954 29.691C52.6048 30.3467 51.7703 30.8883 50.792 31.3159C49.8425 31.7434 48.7778 31.9572 47.5981 31.9572C46.1306 31.9572 44.7926 31.6864 43.5841 31.1448C42.3756 30.6032 41.3397 29.8478 40.4765 28.8786C39.642 27.8809 38.9946 26.7264 38.5342 25.4152C38.0738 24.0754 37.8437 22.6644 37.8437 21.1821C37.8437 19.9848 38.0595 18.8018 38.4911 17.6331C38.9227 16.4359 39.5269 15.3669 40.3038 14.4262C41.1095 13.4855 42.0734 12.7301 43.1956 12.16C44.3466 11.5614 45.6127 11.2621 46.9938 11.2621C48.116 11.2621 49.1663 11.4046 50.1446 11.6897C51.1517 11.9747 52.0149 12.4166 52.7343 13.0152C53.4824 13.5853 54.0866 14.3122 54.547 15.1959C55.0074 16.0795 55.2808 17.12 55.3671 18.3172H41.5124C41.5124 18.5453 41.498 18.8161 41.4692 19.1297C41.4404 19.4147 41.426 19.714 41.426 20.0276C41.426 21.2248 41.5987 22.3793 41.944 23.491C42.2893 24.5743 42.7928 25.5434 43.4546 26.3986C44.1164 27.2253 44.9509 27.8809 45.958 28.3655C46.965 28.8501 48.1304 29.0924 49.454 29.0924C50.8927 29.0924 52.1444 28.7361 53.209 28.0234C54.3024 27.2823 55.0218 26.3844 55.3671 25.3297L55.7124 25.4152ZM51.0941 15.8372C51.0941 14.7825 50.7201 13.8846 49.9719 13.1434C49.2526 12.3738 48.2743 11.989 47.037 11.989C46.2313 11.989 45.4976 12.2313 44.8358 12.7159C44.2027 13.172 43.6416 13.7136 43.1525 14.3407C42.6921 14.9678 42.3324 15.6092 42.0734 16.2648C41.8145 16.892 41.6562 17.3766 41.5987 17.7186C42.2605 17.7186 42.8504 17.7186 43.3683 17.7186C43.8862 17.7186 44.3898 17.7186 44.8789 17.7186C45.3969 17.6901 45.9292 17.6759 46.4759 17.6759C47.0226 17.6474 47.6269 17.6331 48.2887 17.6331C48.7203 17.6331 49.1231 17.6189 49.4972 17.5903C49.8712 17.5618 50.2021 17.4906 50.4899 17.3766C50.6913 17.1485 50.8352 16.9347 50.9215 16.7352C51.0366 16.5356 51.0941 16.2363 51.0941 15.8372Z" fill="white"/>
<path d="M67.6495 31.9145H57.5929V31.4441C58.9165 31.3586 59.7941 31.2303 60.2257 31.0593C60.6574 30.8598 60.8732 30.532 60.8732 30.0759V5.48966C60.8732 5.26161 60.8444 5.09057 60.7868 4.97655C60.7581 4.86253 60.643 4.73425 60.4416 4.59172C60.1826 4.4492 59.7941 4.2354 59.2762 3.95034C58.7583 3.63678 58.3267 3.40874 57.9814 3.26621V3.00965L64.1534 1H64.4555V30.2897C64.4555 30.5747 64.5131 30.7885 64.6282 30.931C64.7721 31.0736 64.9735 31.1733 65.2324 31.2303C65.4914 31.2874 65.8223 31.3301 66.2252 31.3586C66.628 31.3586 67.1028 31.3871 67.6495 31.4441V31.9145Z" fill="white"/>
<path d="M77.0627 4.50621C77.0627 5.16184 76.8325 5.7177 76.3721 6.17379C75.9405 6.60138 75.3938 6.81517 74.732 6.81517C74.0989 6.81517 73.5522 6.58713 73.0918 6.13103C72.6314 5.67494 72.4012 5.13333 72.4012 4.50621C72.4012 3.85058 72.6171 3.30897 73.0487 2.88138C73.509 2.45379 74.0701 2.24 74.732 2.24C75.3938 2.24 75.9405 2.45379 76.3721 2.88138C76.8325 3.30897 77.0627 3.85058 77.0627 4.50621ZM79.4797 31.9145H70.2V31.4869C70.5453 31.4584 70.8906 31.4299 71.2359 31.4014C71.5812 31.3444 71.8833 31.2731 72.1423 31.1876C72.43 31.0736 72.6602 30.931 72.8329 30.76C73.0343 30.589 73.135 30.3752 73.135 30.1186V15.4524C73.135 15.2244 73.1062 15.0248 73.0487 14.8538C73.0199 14.6828 72.9048 14.526 72.7034 14.3834C72.4444 14.2124 72.1279 14.0414 71.7538 13.8703C71.4085 13.6993 71.0345 13.5425 70.6316 13.4V13.1434L76.4584 11.2621H76.7174V30.3752C76.7749 30.6602 76.89 30.874 77.0627 31.0166C77.2641 31.1306 77.4943 31.2161 77.7532 31.2731C78.0122 31.3301 78.2855 31.3729 78.5733 31.4014C78.8898 31.4014 79.1919 31.4299 79.4797 31.4869V31.9145Z" fill="white"/>
<path d="M100.581 25.4152C100.466 26.0423 100.207 26.7549 99.8045 27.5531C99.4017 28.3228 98.855 29.0354 98.1644 29.691C97.4738 30.3467 96.6394 30.8883 95.6611 31.3159C94.7115 31.7434 93.6469 31.9572 92.4671 31.9572C90.9997 31.9572 89.6617 31.6864 88.4532 31.1448C87.2446 30.6032 86.2088 29.8478 85.3455 28.8786C84.5111 27.8809 83.8637 26.7264 83.4033 25.4152C82.9429 24.0754 82.7127 22.6644 82.7127 21.1821C82.7127 19.9848 82.9285 18.8018 83.3601 17.6331C83.7917 16.4359 84.396 15.3669 85.1729 14.4262C85.9786 13.4855 86.9425 12.7301 88.0647 12.16C89.2157 11.5614 90.4817 11.2621 91.8629 11.2621C92.9851 11.2621 94.0353 11.4046 95.0136 11.6897C96.0207 11.9747 96.884 12.4166 97.6033 13.0152C98.3514 13.5853 98.9557 14.3122 99.4161 15.1959C99.8765 16.0795 100.15 17.12 100.236 18.3172H86.3814C86.3814 18.5453 86.367 18.8161 86.3383 19.1297C86.3095 19.4147 86.2951 19.714 86.2951 20.0276C86.2951 21.2248 86.4677 22.3793 86.813 23.491C87.1583 24.5743 87.6619 25.5434 88.3237 26.3986C88.9855 27.2253 89.8199 27.8809 90.827 28.3655C91.8341 28.8501 92.9995 29.0924 94.3231 29.0924C95.7618 29.0924 97.0134 28.7361 98.0781 28.0234C99.1715 27.2823 99.8909 26.3844 100.236 25.3297L100.581 25.4152ZM95.9632 15.8372C95.9632 14.7825 95.5891 13.8846 94.841 13.1434C94.1216 12.3738 93.1433 11.989 91.906 11.989C91.1004 11.989 90.3666 12.2313 89.7048 12.7159C89.0718 13.172 88.5107 13.7136 88.0215 14.3407C87.5612 14.9678 87.2015 15.6092 86.9425 16.2648C86.6835 16.892 86.5253 17.3766 86.4677 17.7186C87.1295 17.7186 87.7194 17.7186 88.2373 17.7186C88.7553 17.7186 89.2588 17.7186 89.748 17.7186C90.2659 17.6901 90.7982 17.6759 91.3449 17.6759C91.8917 17.6474 92.4959 17.6331 93.1577 17.6331C93.5893 17.6331 93.9922 17.6189 94.3662 17.5903C94.7403 17.5618 95.0712 17.4906 95.3589 17.3766C95.5604 17.1485 95.7042 16.9347 95.7906 16.7352C95.9056 16.5356 95.9632 16.2363 95.9632 15.8372Z" fill="white"/>
<path d="M118 13.5283C118 14.1554 117.813 14.6828 117.439 15.1103C117.065 15.5094 116.633 15.709 116.144 15.709C115.684 15.709 115.31 15.6377 115.022 15.4952C114.763 15.3241 114.533 15.1389 114.331 14.9393C114.13 14.7398 113.914 14.5687 113.684 14.4262C113.454 14.2552 113.137 14.1697 112.734 14.1697C112.389 14.1697 112.044 14.2979 111.698 14.5545C111.382 14.7825 111.08 15.0818 110.792 15.4524C110.504 15.823 110.245 16.2506 110.015 16.7352C109.785 17.1913 109.584 17.6331 109.411 18.0607V30.3752C109.497 30.6317 109.684 30.8313 109.972 30.9738C110.26 31.1163 110.576 31.2161 110.922 31.2731C111.296 31.3301 111.67 31.3729 112.044 31.4014C112.447 31.4014 112.792 31.4299 113.08 31.4869V31.9145H103.412V31.4869C104.073 31.4299 104.634 31.3016 105.095 31.1021C105.584 30.9025 105.829 30.5747 105.829 30.1186V15.6662C105.829 15.4382 105.8 15.2671 105.742 15.1531C105.713 15.0391 105.598 14.9108 105.397 14.7683C105.138 14.6257 104.836 14.4547 104.491 14.2552C104.145 14.0271 103.8 13.8418 103.455 13.6993V13.4428L109.109 11.2621H109.368L109.281 17.2055H109.368C109.512 16.8634 109.742 16.3646 110.058 15.709C110.375 15.0533 110.778 14.3977 111.267 13.7421C111.756 13.0579 112.346 12.4736 113.036 11.989C113.727 11.5044 114.518 11.2621 115.41 11.2621C116.13 11.2621 116.734 11.4759 117.223 11.9034C117.741 12.331 118 12.8726 118 13.5283Z" fill="white"/>
</svg>
